<svg xmlns="http://www.w3.org/2000/svg" width="147" height="32" fill="none"><g fill="#fff" clip-path="url(#a)"><path d="M23.994 0h-5.329L0 32h4.669L21.325 2.67 37.99 32h4.669L23.994 0Zm104.341 0h-5.329l-18.665 32h4.669l16.666-29.33L142.331 32H147L128.335 0ZM91.083 32h5.328l18.665-32h-4.668L93.752 29.33 77.086 0h-4.668l18.665 32ZM37.941 3.33h27.41V0H33.944v3.437l3.998-.107Zm8.319 13.466h27.41v-3.34H42.26v3.447l4-.107Zm7.386 11.874h-3.999V32H81.64v-3.33H53.646Z"/></g><defs><clipPath id="a"><path fill="#fff" d="M0 0h147v32H0z"/></clipPath></defs></svg>